<svg width="229" height="109" viewBox="0 0 229 109" fill="none" xmlns="http://www.w3.org/2000/svg">
<path d="M205.293 0H23.2769C17.1056 0.00416664 11.1891 1.47599 6.8253 4.09258C2.46153 6.70917 0.00693346 10.2568 0 13.9572V73.6653C0.00693475 77.3657 2.46153 80.9134 6.8253 83.5299C11.1891 86.1465 17.1056 87.6183 23.2769 87.6225H205.293C211.464 87.6183 217.381 86.1465 221.745 83.5299C226.108 80.9134 228.563 77.3657 228.57 73.6653V13.9572C228.563 10.2568 226.108 6.70917 221.745 4.09258C217.381 1.47599 211.464 0.00416664 205.293 0V0Z" fill="#E6E6E6"/>
<path d="M205.293 4.01807H23.2763C18.8815 4.02102 14.6682 5.06914 11.5607 6.93247C8.45313 8.7958 6.70513 11.3222 6.7002 13.9573V73.6654C6.70514 76.3005 8.45313 78.8269 11.5607 80.6902C14.6682 82.5535 18.8815 83.6016 23.2763 83.6046H205.293C209.687 83.6016 213.901 82.5535 217.008 80.6902C220.116 78.8268 221.864 76.3005 221.869 73.6654V13.9573C221.864 11.3222 220.116 8.79584 217.008 6.93251C213.901 5.06918 209.687 4.02105 205.293 4.01807Z" fill="white"/>
<path d="M191.446 108.272L152.572 84.962L198.465 85.8879V106.529C198.473 107.017 198.236 107.496 197.783 107.902C197.33 108.309 196.683 108.624 195.927 108.806C195.42 108.933 194.877 108.999 194.327 109C193.791 108.999 193.26 108.934 192.765 108.809C192.271 108.684 191.822 108.501 191.446 108.272V108.272Z" fill="#E6E6E6"/>
<path d="M51.8608 30.624L50.7088 33.348H51.9208L52.6288 30.624H51.8608ZM53.8168 30.624L52.6648 33.348H53.8768L54.5848 30.624H53.8168ZM55.4217 31.524H57.7137V39H58.8057V31.524H61.0857V30.636H55.4217V31.524ZM62.4299 39H63.5219V35.364C63.5219 33.948 64.2899 33.252 65.4059 33.252C66.5099 33.252 67.2419 33.936 67.2419 35.28V39H68.3219V35.124C68.3219 33.24 67.1579 32.304 65.6939 32.304C64.7699 32.304 63.9539 32.676 63.5219 33.372V30.12H62.4299V39ZM72.9016 33.24C74.0296 33.24 74.9896 33.948 74.9776 35.232H70.8256C70.9456 33.948 71.8336 33.24 72.9016 33.24ZM75.9736 36.972H74.7976C74.5576 37.68 73.9336 38.184 72.9496 38.184C71.8336 38.184 70.8976 37.452 70.8136 36.12H76.0696C76.0936 35.892 76.1056 35.7 76.1056 35.46C76.1056 33.66 74.8576 32.316 72.9496 32.316C71.0296 32.316 69.6976 33.624 69.6976 35.7C69.6976 37.788 71.0776 39.108 72.9496 39.108C74.5816 39.108 75.6376 38.172 75.9736 36.972ZM80.3383 35.7C80.3383 37.788 81.6703 39.108 83.5423 39.108C85.1743 39.108 86.2423 38.196 86.5783 36.888H85.4023C85.1623 37.716 84.5143 38.184 83.5423 38.184C82.3423 38.184 81.4543 37.332 81.4543 35.7C81.4543 34.092 82.3423 33.24 83.5423 33.24C84.5143 33.24 85.1743 33.744 85.4023 34.536H86.5783C86.2423 33.156 85.1743 32.316 83.5423 32.316C81.6703 32.316 80.3383 33.636 80.3383 35.7ZM87.6273 35.688C87.6273 37.728 88.9833 39.108 90.7353 39.108C91.9473 39.108 92.7993 38.484 93.1953 37.776V39H94.2993V32.424H93.1953V33.624C92.8113 32.94 91.9713 32.316 90.7473 32.316C88.9833 32.316 87.6273 33.636 87.6273 35.688ZM93.1953 35.7C93.1953 37.248 92.1633 38.148 90.9633 38.148C89.7633 38.148 88.7433 37.236 88.7433 35.688C88.7433 34.14 89.7633 33.264 90.9633 33.264C92.1633 33.264 93.1953 34.176 93.1953 35.7ZM96.3847 37.2C96.3847 38.52 97.0447 39 98.2087 39H99.1927V38.076H98.3887C97.7167 38.076 97.4767 37.848 97.4767 37.2V33.324H99.1927V32.424H97.4767V30.768H96.3847V32.424H95.5327V33.324H96.3847V37.2ZM103.312 33.24C104.44 33.24 105.4 33.948 105.388 35.232H101.236C101.356 33.948 102.244 33.24 103.312 33.24ZM106.384 36.972H105.208C104.968 37.68 104.344 38.184 103.36 38.184C102.244 38.184 101.308 37.452 101.224 36.12H106.48C106.504 35.892 106.516 35.7 106.516 35.46C106.516 33.66 105.268 32.316 103.36 32.316C101.44 32.316 100.108 33.624 100.108 35.7C100.108 37.788 101.488 39.108 103.36 39.108C104.992 39.108 106.048 38.172 106.384 36.972ZM107.549 35.688C107.549 37.728 108.905 39.108 110.669 39.108C111.869 39.108 112.721 38.472 113.117 37.764V39.144C113.117 40.548 112.241 41.292 111.077 41.292C109.997 41.292 109.217 40.752 108.977 39.96H107.897C108.113 41.364 109.349 42.24 111.077 42.24C113.009 42.24 114.221 40.956 114.221 39.144V32.424H113.117V33.624C112.733 32.916 111.869 32.316 110.669 32.316C108.905 32.316 107.549 33.636 107.549 35.688ZM113.117 35.7C113.117 37.248 112.085 38.148 110.885 38.148C109.685 38.148 108.665 37.236 108.665 35.688C108.665 34.14 109.685 33.264 110.885 33.264C112.085 33.264 113.117 34.176 113.117 35.7ZM122.307 35.7C122.307 33.624 120.855 32.316 118.983 32.316C117.123 32.316 115.659 33.624 115.659 35.7C115.659 37.788 117.075 39.108 118.935 39.108C120.807 39.108 122.307 37.788 122.307 35.7ZM116.775 35.7C116.775 34.044 117.819 33.264 118.971 33.264C120.099 33.264 121.191 34.044 121.191 35.7C121.191 37.368 120.075 38.148 118.935 38.148C117.795 38.148 116.775 37.368 116.775 35.7ZM124.834 35.424C124.834 33.9 125.626 33.432 126.67 33.432H126.958V32.304C125.914 32.304 125.206 32.76 124.834 33.492V32.424H123.742V39H124.834V35.424ZM128.219 39H129.311V32.424H128.219V39ZM128.783 31.356C129.179 31.356 129.503 31.032 129.503 30.612C129.503 30.192 129.179 29.868 128.783 29.868C128.363 29.868 128.039 30.192 128.039 30.612C128.039 31.032 128.363 31.356 128.783 31.356ZM133.968 33.24C135.096 33.24 136.056 33.948 136.044 35.232H131.892C132.012 33.948 132.9 33.24 133.968 33.24ZM137.04 36.972H135.864C135.624 37.68 135 38.184 134.016 38.184C132.9 38.184 131.964 37.452 131.88 36.12H137.136C137.16 35.892 137.172 35.7 137.172 35.46C137.172 33.66 135.924 32.316 134.016 32.316C132.096 32.316 130.764 33.624 130.764 35.7C130.764 37.788 132.144 39.108 134.016 39.108C135.648 39.108 136.704 38.172 137.04 36.972ZM143.341 37.212C143.293 34.86 139.477 35.712 139.477 34.152C139.477 33.624 139.957 33.24 140.761 33.24C141.637 33.24 142.141 33.72 142.189 34.38H143.281C143.209 33.096 142.249 32.316 140.797 32.316C139.333 32.316 138.385 33.144 138.385 34.152C138.385 36.6 142.273 35.748 142.273 37.212C142.273 37.752 141.793 38.184 140.929 38.184C140.005 38.184 139.441 37.704 139.381 37.068H138.253C138.325 38.268 139.405 39.108 140.941 39.108C142.393 39.108 143.341 38.292 143.341 37.212ZM147.674 35.688C147.674 37.728 149.03 39.108 150.794 39.108C151.994 39.108 152.846 38.496 153.242 37.764V39H154.346V30.12H153.242V33.6C152.786 32.844 151.838 32.316 150.806 32.316C149.03 32.316 147.674 33.636 147.674 35.688ZM153.242 35.7C153.242 37.248 152.21 38.148 151.01 38.148C149.81 38.148 148.79 37.236 148.79 35.688C148.79 34.14 149.81 33.264 151.01 33.264C152.21 33.264 153.242 34.176 153.242 35.7ZM162.432 35.7C162.432 33.624 160.98 32.316 159.108 32.316C157.248 32.316 155.784 33.624 155.784 35.7C155.784 37.788 157.2 39.108 159.06 39.108C160.932 39.108 162.432 37.788 162.432 35.7ZM156.9 35.7C156.9 34.044 157.944 33.264 159.096 33.264C160.224 33.264 161.316 34.044 161.316 35.7C161.316 37.368 160.2 38.148 159.06 38.148C157.92 38.148 156.9 37.368 156.9 35.7ZM168.679 39H169.759V35.124C169.759 33.24 168.595 32.304 167.071 32.304C166.183 32.304 165.391 32.676 164.959 33.36V32.424H163.867V39H164.959V35.364C164.959 33.948 165.727 33.252 166.843 33.252C167.947 33.252 168.679 33.936 168.679 35.28V39ZM171.771 33.36L172.923 30.636H171.711L171.003 33.36H171.771ZM174.408 37.2C174.408 38.52 175.068 39 176.232 39H177.216V38.076H176.412C175.74 38.076 175.5 37.848 175.5 37.2V33.324H177.216V32.424H175.5V30.768H174.408V32.424H173.556V33.324H174.408V37.2ZM85.8789 57H86.9589V53.124C86.9589 51.24 85.7949 50.304 84.2949 50.304C83.2869 50.304 82.3509 50.82 81.9669 51.768C81.5349 50.784 80.6349 50.304 79.5549 50.304C78.6909 50.304 77.9109 50.676 77.4789 51.372V50.424H76.3869V57H77.4789V53.376C77.4789 51.96 78.2349 51.252 79.3389 51.252C80.4189 51.252 81.1389 51.936 81.1389 53.28V57H82.2189V53.376C82.2189 51.96 82.9749 51.252 84.0789 51.252C85.1589 51.252 85.8789 51.936 85.8789 53.28V57ZM88.3422 53.688C88.3422 55.728 89.6982 57.108 91.4502 57.108C92.6622 57.108 93.5142 56.484 93.9102 55.776V57H95.0142V50.424H93.9102V51.624C93.5262 50.94 92.6862 50.316 91.4622 50.316C89.6982 50.316 88.3422 51.636 88.3422 53.688ZM93.9102 53.7C93.9102 55.248 92.8782 56.148 91.6782 56.148C90.4782 56.148 89.4582 55.236 89.4582 53.688C89.4582 52.14 90.4782 51.264 91.6782 51.264C92.8782 51.264 93.9102 52.176 93.9102 53.7ZM96.8595 57H97.9515V54.096L100.532 57H102.02L98.9115 53.7L102.008 50.424H100.484L97.9515 53.34V48.12H96.8595V57ZM105.831 51.24C106.959 51.24 107.919 51.948 107.907 53.232H103.755C103.875 51.948 104.763 51.24 105.831 51.24ZM108.903 54.972H107.727C107.487 55.68 106.863 56.184 105.879 56.184C104.763 56.184 103.827 55.452 103.743 54.12H108.999C109.023 53.892 109.035 53.7 109.035 53.46C109.035 51.66 107.787 50.316 105.879 50.316C103.959 50.316 102.627 51.624 102.627 53.7C102.627 55.788 104.007 57.108 105.879 57.108C107.511 57.108 108.567 56.172 108.903 54.972ZM118.404 55.212C118.356 52.86 114.54 53.712 114.54 52.152C114.54 51.624 115.02 51.24 115.824 51.24C116.7 51.24 117.204 51.72 117.252 52.38H118.344C118.272 51.096 117.312 50.316 115.86 50.316C114.396 50.316 113.448 51.144 113.448 52.152C113.448 54.6 117.336 53.748 117.336 55.212C117.336 55.752 116.856 56.184 115.992 56.184C115.068 56.184 114.504 55.704 114.444 55.068H113.316C113.388 56.268 114.468 57.108 116.004 57.108C117.456 57.108 118.404 56.292 118.404 55.212ZM122.741 51.24C123.869 51.24 124.829 51.948 124.817 53.232H120.665C120.785 51.948 121.673 51.24 122.741 51.24ZM125.813 54.972H124.637C124.397 55.68 123.773 56.184 122.789 56.184C121.673 56.184 120.737 55.452 120.653 54.12H125.909C125.933 53.892 125.945 53.7 125.945 53.46C125.945 51.66 124.697 50.316 122.789 50.316C120.869 50.316 119.537 51.624 119.537 53.7C119.537 55.788 120.917 57.108 122.789 57.108C124.421 57.108 125.477 56.172 125.813 54.972ZM132.199 57H133.279V53.124C133.279 51.24 132.115 50.304 130.591 50.304C129.703 50.304 128.911 50.676 128.479 51.36V50.424H127.387V57H128.479V53.364C128.479 51.948 129.247 51.252 130.363 51.252C131.467 51.252 132.199 51.936 132.199 53.28V57ZM139.791 55.212C139.743 52.86 135.927 53.712 135.927 52.152C135.927 51.624 136.407 51.24 137.211 51.24C138.087 51.24 138.591 51.72 138.639 52.38H139.731C139.659 51.096 138.699 50.316 137.247 50.316C135.783 50.316 134.835 51.144 134.835 52.152C134.835 54.6 138.723 53.748 138.723 55.212C138.723 55.752 138.243 56.184 137.379 56.184C136.455 56.184 135.891 55.704 135.831 55.068H134.703C134.775 56.268 135.855 57.108 137.391 57.108C138.843 57.108 139.791 56.292 139.791 55.212ZM144.128 51.24C145.256 51.24 146.216 51.948 146.204 53.232H142.052C142.172 51.948 143.06 51.24 144.128 51.24ZM147.2 54.972H146.024C145.784 55.68 145.16 56.184 144.176 56.184C143.06 56.184 142.124 55.452 142.04 54.12H147.296C147.32 53.892 147.332 53.7 147.332 53.46C147.332 51.66 146.084 50.316 144.176 50.316C142.256 50.316 140.924 51.624 140.924 53.7C140.924 55.788 142.304 57.108 144.176 57.108C145.808 57.108 146.864 56.172 147.2 54.972ZM151.066 51.36L152.218 48.636H151.006L150.298 51.36H151.066ZM149.11 51.36L150.262 48.636H149.05L148.342 51.36H149.11Z" fill="#383838"/>
</svg>
