<svg width="229" height="109" viewBox="0 0 229 109" fill="none" xmlns="http://www.w3.org/2000/svg">
<path d="M23.2769 0H205.293C211.464 0.00416664 217.381 1.476 221.745 4.09258C226.108 6.70917 228.563 10.2568 228.57 13.9572V73.6653C228.563 77.3657 226.108 80.9134 221.745 83.5299C217.381 86.1465 211.464 87.6183 205.293 87.6225H23.2769C17.1056 87.6183 11.1891 86.1465 6.8253 83.5299C2.46154 80.9134 0.00693475 77.3657 0 73.6653V13.9572C0.00693346 10.2568 2.46154 6.70917 6.8253 4.09258C11.1891 1.476 17.1056 0.00416664 23.2769 0V0Z" fill="#E6E6E6"/>
<path d="M23.277 4.01807H205.293C209.688 4.02102 213.901 5.06914 217.009 6.93247C220.117 8.7958 221.865 11.3222 221.87 13.9573V73.6654C221.865 76.3005 220.117 78.8269 217.009 80.6902C213.901 82.5535 209.688 83.6016 205.293 83.6046H23.277C18.8823 83.6016 14.669 82.5535 11.5615 80.6902C8.45405 78.8268 6.7061 76.3005 6.70117 73.6654V13.9573C6.70609 11.3222 8.45404 8.79583 11.5615 6.93251C14.669 5.06918 18.8823 4.02105 23.277 4.01807Z" fill="white"/>
<path d="M25.0526 109C24.5034 108.999 23.9598 108.933 23.4531 108.806C22.6969 108.624 22.05 108.309 21.5972 107.902C21.1443 107.496 20.9067 107.017 20.9153 106.529V85.8879L66.8077 84.962L27.9335 108.272C27.5576 108.501 27.1094 108.684 26.6148 108.809C26.1203 108.934 25.5893 108.999 25.0526 109V109Z" fill="#E6E6E6"/>
<path d="M48.9311 21.624L47.7791 24.348H48.9911L49.6991 21.624H48.9311ZM50.8871 21.624L49.7351 24.348H50.9471L51.6551 21.624H50.8871ZM54.7 30.012L55.912 30L57.928 23.268L59.872 30H61.096L63.52 21.636H62.344L60.508 28.704L58.588 21.636H57.364L55.348 28.728L53.524 21.636H52.36L54.7 30.012ZM64.715 30H65.807V26.364C65.807 24.948 66.575 24.252 67.691 24.252C68.795 24.252 69.527 24.936 69.527 26.28V30H70.607V26.124C70.607 24.24 69.443 23.304 67.979 23.304C67.055 23.304 66.239 23.676 65.807 24.372V21.12H64.715V30ZM74.8868 28.752L72.8228 23.424H71.6108L74.2628 29.928L72.9668 33.096H74.0948L78.0548 23.424H76.9268L74.8868 28.752ZM81.9437 26.7C81.9437 28.788 83.2757 30.108 85.1477 30.108C86.7797 30.108 87.8477 29.196 88.1837 27.888H87.0077C86.7677 28.716 86.1197 29.184 85.1477 29.184C83.9477 29.184 83.0597 28.332 83.0597 26.7C83.0597 25.092 83.9477 24.24 85.1477 24.24C86.1197 24.24 86.7797 24.744 87.0077 25.536H88.1837C87.8477 24.156 86.7797 23.316 85.1477 23.316C83.2757 23.316 81.9437 24.636 81.9437 26.7ZM89.2328 26.688C89.2328 28.728 90.5888 30.108 92.3408 30.108C93.5528 30.108 94.4048 29.484 94.8008 28.776V30H95.9048V23.424H94.8008V24.624C94.4168 23.94 93.5768 23.316 92.3528 23.316C90.5888 23.316 89.2328 24.636 89.2328 26.688ZM94.8008 26.7C94.8008 28.248 93.7688 29.148 92.5688 29.148C91.3688 29.148 90.3488 28.236 90.3488 26.688C90.3488 25.14 91.3688 24.264 92.5688 24.264C93.7688 24.264 94.8008 25.176 94.8008 26.7ZM102.562 30H103.642V26.124C103.642 24.24 102.478 23.304 100.954 23.304C100.066 23.304 99.2742 23.676 98.8422 24.36V23.424H97.7502V30H98.8422V26.364C98.8422 24.948 99.6102 24.252 100.726 24.252C101.83 24.252 102.562 24.936 102.562 26.28V30ZM105.654 24.36L106.806 21.636H105.594L104.886 24.36H105.654ZM108.291 28.2C108.291 29.52 108.951 30 110.115 30H111.099V29.076H110.295C109.623 29.076 109.383 28.848 109.383 28.2V24.324H111.099V23.424H109.383V21.768H108.291V23.424H107.439V24.324H108.291V28.2ZM115.621 30H116.713V21.636H115.621V30ZM122.866 24.636V23.424H121.774V33.12H122.866V28.788C123.274 29.46 124.126 30.108 125.326 30.108C127.09 30.108 128.446 28.728 128.446 26.688C128.446 24.636 127.09 23.316 125.326 23.316C124.126 23.316 123.262 23.94 122.866 24.636ZM127.33 26.688C127.33 28.236 126.31 29.148 125.098 29.148C123.91 29.148 122.866 28.248 122.866 26.7C122.866 25.176 123.91 24.264 125.098 24.264C126.31 24.264 127.33 25.14 127.33 26.688ZM135.715 23.424H134.623V27.036C134.623 28.452 133.867 29.148 132.739 29.148C131.635 29.148 130.903 28.464 130.903 27.132V23.424H129.823V27.276C129.823 29.16 131.011 30.096 132.523 30.096C133.399 30.096 134.203 29.712 134.623 29.028V30H135.715V23.424ZM137.799 28.2C137.799 29.52 138.459 30 139.623 30H140.607V29.076H139.803C139.131 29.076 138.891 28.848 138.891 28.2V24.324H140.607V23.424H138.891V21.768H137.799V23.424H136.947V24.324H137.799V28.2ZM144.721 26.688C144.721 28.728 146.077 30.108 147.829 30.108C149.041 30.108 149.893 29.484 150.289 28.776V30H151.393V23.424H150.289V24.624C149.905 23.94 149.065 23.316 147.841 23.316C146.077 23.316 144.721 24.636 144.721 26.688ZM150.289 26.7C150.289 28.248 149.257 29.148 148.057 29.148C146.857 29.148 145.837 28.236 145.837 26.688C145.837 25.14 146.857 24.264 148.057 24.264C149.257 24.264 150.289 25.176 150.289 26.7ZM153.238 30H154.33V21.12H153.238V30ZM156.192 30H157.284V21.12H156.192V30ZM171.836 30H172.916V26.124C172.916 24.24 171.752 23.304 170.252 23.304C169.244 23.304 168.308 23.82 167.924 24.768C167.492 23.784 166.592 23.304 165.512 23.304C164.648 23.304 163.868 23.676 163.436 24.372V23.424H162.344V30H163.436V26.376C163.436 24.96 164.192 24.252 165.296 24.252C166.376 24.252 167.096 24.936 167.096 26.28V30H168.176V26.376C168.176 24.96 168.932 24.252 170.036 24.252C171.116 24.252 171.836 24.936 171.836 26.28V30ZM177.203 28.752L175.139 23.424H173.927L176.579 29.928L175.283 33.096H176.411L180.371 23.424H179.243L177.203 28.752ZM50.2892 48H51.3812V41.424H50.2892V48ZM50.8532 40.356C51.2492 40.356 51.5732 40.032 51.5732 39.612C51.5732 39.192 51.2492 38.868 50.8532 38.868C50.4332 38.868 50.1092 39.192 50.1092 39.612C50.1092 40.032 50.4332 40.356 50.8532 40.356ZM53.4824 46.2C53.4824 47.52 54.1424 48 55.3064 48H56.2904V47.076H55.4864C54.8144 47.076 54.5744 46.848 54.5744 46.2V42.324H56.2904V41.424H54.5744V39.768H53.4824V41.424H52.6304V42.324H53.4824V46.2ZM60.4095 42.24C61.5375 42.24 62.4975 42.948 62.4855 44.232H58.3335C58.4535 42.948 59.3415 42.24 60.4095 42.24ZM63.4815 45.972H62.3055C62.0655 46.68 61.4415 47.184 60.4575 47.184C59.3415 47.184 58.4055 46.452 58.3215 45.12H63.5775C63.6015 44.892 63.6135 44.7 63.6135 44.46C63.6135 42.66 62.3655 41.316 60.4575 41.316C58.5375 41.316 57.2055 42.624 57.2055 44.7C57.2055 46.788 58.5855 48.108 60.4575 48.108C62.0895 48.108 63.1455 47.172 63.4815 45.972ZM74.5469 48H75.6269V44.124C75.6269 42.24 74.4629 41.304 72.9629 41.304C71.9549 41.304 71.0189 41.82 70.6349 42.768C70.2029 41.784 69.3029 41.304 68.2229 41.304C67.3589 41.304 66.5789 41.676 66.1469 42.372V41.424H65.0549V48H66.1469V44.376C66.1469 42.96 66.9029 42.252 68.0069 42.252C69.0869 42.252 69.8069 42.936 69.8069 44.28V48H70.8869V44.376C70.8869 42.96 71.6429 42.252 72.7469 42.252C73.8269 42.252 74.5469 42.936 74.5469 44.28V48ZM82.1461 46.212C82.0981 43.86 78.2821 44.712 78.2821 43.152C78.2821 42.624 78.7621 42.24 79.5661 42.24C80.4421 42.24 80.9461 42.72 80.9941 43.38H82.0861C82.0141 42.096 81.0541 41.316 79.6021 41.316C78.1381 41.316 77.1901 42.144 77.1901 43.152C77.1901 45.6 81.0781 44.748 81.0781 46.212C81.0781 46.752 80.5981 47.184 79.7341 47.184C78.8101 47.184 78.2461 46.704 78.1861 46.068H77.0581C77.1301 47.268 78.2101 48.108 79.7461 48.108C81.1981 48.108 82.1461 47.292 82.1461 46.212ZM86.8869 48H87.9789V41.424H86.8869V48ZM87.4509 40.356C87.8469 40.356 88.1709 40.032 88.1709 39.612C88.1709 39.192 87.8469 38.868 87.4509 38.868C87.0309 38.868 86.7069 39.192 86.7069 39.612C86.7069 40.032 87.0309 40.356 87.4509 40.356ZM94.652 48H95.732V44.124C95.732 42.24 94.568 41.304 93.044 41.304C92.156 41.304 91.364 41.676 90.932 42.36V41.424H89.84V48H90.932V44.364C90.932 42.948 91.7 42.252 92.816 42.252C93.92 42.252 94.652 42.936 94.652 44.28V48ZM100.955 46.2C100.955 47.52 101.615 48 102.779 48H103.763V47.076H102.959C102.287 47.076 102.047 46.848 102.047 46.2V42.324H103.763V41.424H102.047V39.768H100.955V41.424H100.103V42.324H100.955V46.2ZM105.086 48H106.178V44.364C106.178 42.948 106.946 42.252 108.062 42.252C109.166 42.252 109.898 42.936 109.898 44.28V48H110.978V44.124C110.978 42.24 109.814 41.304 108.35 41.304C107.426 41.304 106.61 41.676 106.178 42.372V39.12H105.086V48ZM115.558 42.24C116.686 42.24 117.646 42.948 117.634 44.232H113.482C113.602 42.948 114.49 42.24 115.558 42.24ZM118.63 45.972H117.454C117.214 46.68 116.59 47.184 115.606 47.184C114.49 47.184 113.554 46.452 113.47 45.12H118.726C118.75 44.892 118.762 44.7 118.762 44.46C118.762 42.66 117.514 41.316 115.606 41.316C113.686 41.316 112.354 42.624 112.354 44.7C112.354 46.788 113.734 48.108 115.606 48.108C117.238 48.108 118.294 47.172 118.63 45.972ZM124.495 42.648V39.12H123.403V48H124.495V46.788C124.903 47.508 125.755 48.108 126.955 48.108C128.719 48.108 130.075 46.728 130.075 44.688C130.075 42.636 128.731 41.316 126.955 41.316C125.791 41.316 124.915 41.916 124.495 42.648ZM128.959 44.688C128.959 46.236 127.939 47.148 126.727 47.148C125.539 47.148 124.495 46.248 124.495 44.7C124.495 43.176 125.539 42.264 126.727 42.264C127.939 42.264 128.959 43.14 128.959 44.688ZM131.104 44.688C131.104 46.728 132.46 48.108 134.212 48.108C135.424 48.108 136.276 47.484 136.672 46.776V48H137.776V41.424H136.672V42.624C136.288 41.94 135.448 41.316 134.224 41.316C132.46 41.316 131.104 42.636 131.104 44.688ZM136.672 44.7C136.672 46.248 135.64 47.148 134.44 47.148C133.24 47.148 132.22 46.236 132.22 44.688C132.22 43.14 133.24 42.264 134.44 42.264C135.64 42.264 136.672 43.176 136.672 44.7ZM144.349 46.212C144.301 43.86 140.485 44.712 140.485 43.152C140.485 42.624 140.965 42.24 141.769 42.24C142.645 42.24 143.149 42.72 143.197 43.38H144.289C144.217 42.096 143.257 41.316 141.805 41.316C140.341 41.316 139.393 42.144 139.393 43.152C139.393 45.6 143.281 44.748 143.281 46.212C143.281 46.752 142.801 47.184 141.937 47.184C141.013 47.184 140.449 46.704 140.389 46.068H139.261C139.333 47.268 140.413 48.108 141.949 48.108C143.401 48.108 144.349 47.292 144.349 46.212ZM145.891 48H146.983V45.096L149.563 48H151.051L147.943 44.7L151.039 41.424H149.515L146.983 44.34V39.12H145.891V48ZM154.863 42.24C155.991 42.24 156.951 42.948 156.939 44.232H152.787C152.907 42.948 153.795 42.24 154.863 42.24ZM157.935 45.972H156.759C156.519 46.68 155.895 47.184 154.911 47.184C153.795 47.184 152.859 46.452 152.775 45.12H158.031C158.055 44.892 158.067 44.7 158.067 44.46C158.067 42.66 156.819 41.316 154.911 41.316C152.991 41.316 151.659 42.624 151.659 44.7C151.659 46.788 153.039 48.108 154.911 48.108C156.543 48.108 157.599 47.172 157.935 45.972ZM159.748 46.2C159.748 47.52 160.408 48 161.572 48H162.556V47.076H161.752C161.08 47.076 160.84 46.848 160.84 46.2V42.324H162.556V41.424H160.84V39.768H159.748V41.424H158.896V42.324H159.748V46.2ZM166.67 44.688C166.67 46.728 168.026 48.108 169.778 48.108C170.99 48.108 171.842 47.484 172.238 46.776V48H173.342V41.424H172.238V42.624C171.854 41.94 171.014 41.316 169.79 41.316C168.026 41.316 166.67 42.636 166.67 44.688ZM172.238 44.7C172.238 46.248 171.206 47.148 170.006 47.148C168.806 47.148 167.786 46.236 167.786 44.688C167.786 43.14 168.806 42.264 170.006 42.264C171.206 42.264 172.238 43.176 172.238 44.7ZM175.428 46.2C175.428 47.52 176.088 48 177.252 48H178.236V47.076H177.432C176.76 47.076 176.52 46.848 176.52 46.2V42.324H178.236V41.424H176.52V39.768H175.428V41.424H174.576V42.324H175.428V46.2ZM66.0742 64.2C66.0742 65.52 66.7342 66 67.8982 66H68.8822V65.076H68.0782C67.4062 65.076 67.1662 64.848 67.1662 64.2V60.324H68.8822V59.424H67.1662V57.768H66.0742V59.424H65.2222V60.324H66.0742V64.2ZM70.2053 66H71.2973V62.364C71.2973 60.948 72.0653 60.252 73.1813 60.252C74.2853 60.252 75.0173 60.936 75.0173 62.28V66H76.0973V62.124C76.0973 60.24 74.9333 59.304 73.4693 59.304C72.5453 59.304 71.7293 59.676 71.2973 60.372V57.12H70.2053V66ZM80.677 60.24C81.805 60.24 82.765 60.948 82.753 62.232H78.601C78.721 60.948 79.609 60.24 80.677 60.24ZM83.749 63.972H82.573C82.333 64.68 81.709 65.184 80.725 65.184C79.609 65.184 78.673 64.452 78.589 63.12H83.845C83.869 62.892 83.881 62.7 83.881 62.46C83.881 60.66 82.633 59.316 80.725 59.316C78.805 59.316 77.473 60.624 77.473 62.7C77.473 64.788 78.853 66.108 80.725 66.108C82.357 66.108 83.413 65.172 83.749 63.972ZM93.2497 64.212C93.2017 61.86 89.3857 62.712 89.3857 61.152C89.3857 60.624 89.8657 60.24 90.6697 60.24C91.5457 60.24 92.0497 60.72 92.0977 61.38H93.1897C93.1177 60.096 92.1577 59.316 90.7057 59.316C89.2417 59.316 88.2937 60.144 88.2937 61.152C88.2937 63.6 92.1817 62.748 92.1817 64.212C92.1817 64.752 91.7017 65.184 90.8377 65.184C89.9137 65.184 89.3497 64.704 89.2897 64.068H88.1617C88.2337 65.268 89.3137 66.108 90.8497 66.108C92.3017 66.108 93.2497 65.292 93.2497 64.212ZM94.3832 62.688C94.3832 64.728 95.7392 66.108 97.4912 66.108C98.7032 66.108 99.5552 65.484 99.9512 64.776V66H101.055V59.424H99.9512V60.624C99.5672 59.94 98.7272 59.316 97.5032 59.316C95.7392 59.316 94.3832 60.636 94.3832 62.688ZM99.9512 62.7C99.9512 64.248 98.9192 65.148 97.7192 65.148C96.5192 65.148 95.4992 64.236 95.4992 62.688C95.4992 61.14 96.5192 60.264 97.7192 60.264C98.9192 60.264 99.9512 61.176 99.9512 62.7ZM112.393 66H113.473V62.124C113.473 60.24 112.309 59.304 110.809 59.304C109.801 59.304 108.865 59.82 108.481 60.768C108.049 59.784 107.149 59.304 106.069 59.304C105.205 59.304 104.425 59.676 103.993 60.372V59.424H102.901V66H103.993V62.376C103.993 60.96 104.749 60.252 105.853 60.252C106.933 60.252 107.653 60.936 107.653 62.28V66H108.733V62.376C108.733 60.96 109.489 60.252 110.593 60.252C111.673 60.252 112.393 60.936 112.393 62.28V66ZM118.06 60.24C119.188 60.24 120.148 60.948 120.136 62.232H115.984C116.104 60.948 116.992 60.24 118.06 60.24ZM121.132 63.972H119.956C119.716 64.68 119.092 65.184 118.108 65.184C116.992 65.184 116.056 64.452 115.972 63.12H121.228C121.252 62.892 121.264 62.7 121.264 62.46C121.264 60.66 120.016 59.316 118.108 59.316C116.188 59.316 114.856 60.624 114.856 62.7C114.856 64.788 116.236 66.108 118.108 66.108C119.74 66.108 120.796 65.172 121.132 63.972ZM126.144 64.2C126.144 65.52 126.804 66 127.968 66H128.952V65.076H128.148C127.476 65.076 127.236 64.848 127.236 64.2V60.324H128.952V59.424H127.236V57.768H126.144V59.424H125.292V60.324H126.144V64.2ZM130.276 66H131.368V59.424H130.276V66ZM130.84 58.356C131.236 58.356 131.56 58.032 131.56 57.612C131.56 57.192 131.236 56.868 130.84 56.868C130.42 56.868 130.096 57.192 130.096 57.612C130.096 58.032 130.42 58.356 130.84 58.356ZM142.721 66H143.801V62.124C143.801 60.24 142.637 59.304 141.137 59.304C140.129 59.304 139.193 59.82 138.809 60.768C138.377 59.784 137.477 59.304 136.397 59.304C135.533 59.304 134.753 59.676 134.321 60.372V59.424H133.229V66H134.321V62.376C134.321 60.96 135.077 60.252 136.181 60.252C137.261 60.252 137.981 60.936 137.981 62.28V66H139.061V62.376C139.061 60.96 139.817 60.252 140.921 60.252C142.001 60.252 142.721 60.936 142.721 62.28V66ZM148.388 60.24C149.516 60.24 150.476 60.948 150.464 62.232H146.312C146.432 60.948 147.32 60.24 148.388 60.24ZM151.46 63.972H150.284C150.044 64.68 149.42 65.184 148.436 65.184C147.32 65.184 146.384 64.452 146.3 63.12H151.556C151.58 62.892 151.592 62.7 151.592 62.46C151.592 60.66 150.344 59.316 148.436 59.316C146.516 59.316 145.184 60.624 145.184 62.7C145.184 64.788 146.564 66.108 148.436 66.108C150.068 66.108 151.124 65.172 151.46 63.972ZM152.553 59.94H153.585C153.585 59.004 154.197 58.44 155.181 58.44C156.153 58.44 156.777 59.04 156.777 60C156.777 61.452 155.613 61.716 154.245 61.716H153.897L153.945 63.612H154.893L154.929 62.472C156.609 62.472 157.821 61.752 157.821 60C157.821 58.476 156.741 57.528 155.169 57.528C153.597 57.528 152.541 58.488 152.553 59.94ZM155.133 65.328C155.133 64.908 154.809 64.584 154.413 64.584C153.993 64.584 153.669 64.908 153.669 65.328C153.669 65.748 153.993 66.072 154.413 66.072C154.809 66.072 155.133 65.748 155.133 65.328ZM161.618 60.36L162.77 57.636H161.558L160.85 60.36H161.618ZM159.662 60.36L160.814 57.636H159.602L158.894 60.36H159.662Z" fill="#383838"/>
</svg>
