<svg width="229" height="109" viewBox="0 0 229 109" fill="none" xmlns="http://www.w3.org/2000/svg">
<path d="M23.2769 0H205.293C211.464 0.00416664 217.381 1.476 221.745 4.09258C226.108 6.70917 228.563 10.2568 228.57 13.9572V73.6653C228.563 77.3657 226.108 80.9134 221.745 83.5299C217.381 86.1465 211.464 87.6183 205.293 87.6225H23.2769C17.1056 87.6183 11.1891 86.1465 6.8253 83.5299C2.46154 80.9134 0.00693475 77.3657 0 73.6653V13.9572C0.00693346 10.2568 2.46154 6.70917 6.8253 4.09258C11.1891 1.476 17.1056 0.00416664 23.2769 0V0Z" fill="#E6E6E6"/>
<path d="M23.277 4.01807H205.293C209.688 4.02102 213.901 5.06914 217.009 6.93247C220.117 8.7958 221.865 11.3222 221.87 13.9573V73.6654C221.865 76.3005 220.117 78.8269 217.009 80.6902C213.901 82.5535 209.688 83.6016 205.293 83.6046H23.277C18.8823 83.6016 14.669 82.5535 11.5615 80.6902C8.45405 78.8268 6.7061 76.3005 6.70117 73.6654V13.9573C6.70609 11.3222 8.45404 8.79583 11.5615 6.93251C14.669 5.06918 18.8823 4.02105 23.277 4.01807Z" fill="white"/>
<path d="M25.0526 109C24.5034 108.999 23.9598 108.933 23.4531 108.806C22.6969 108.624 22.05 108.309 21.5972 107.902C21.1443 107.496 20.9067 107.017 20.9153 106.529V85.8879L66.8077 84.962L27.9335 108.272C27.5576 108.501 27.1094 108.684 26.6148 108.809C26.1203 108.934 25.5893 108.999 25.0526 109V109Z" fill="#E6E6E6"/>
<path d="M44.4018 30.624L43.2498 33.348H44.4618L45.1698 30.624H44.4018ZM46.3578 30.624L45.2058 33.348H46.4178L47.1258 30.624H46.3578ZM48.4787 39H49.5707V30.636H48.4787V39ZM54.223 35.7C54.223 37.788 55.555 39.108 57.427 39.108C59.059 39.108 60.127 38.196 60.463 36.888H59.287C59.047 37.716 58.399 38.184 57.427 38.184C56.227 38.184 55.339 37.332 55.339 35.7C55.339 34.092 56.227 33.24 57.427 33.24C58.399 33.24 59.059 33.744 59.287 34.536H60.463C60.127 33.156 59.059 32.316 57.427 32.316C55.555 32.316 54.223 33.636 54.223 35.7ZM61.5121 35.688C61.5121 37.728 62.8681 39.108 64.6201 39.108C65.8321 39.108 66.6841 38.484 67.0801 37.776V39H68.1841V32.424H67.0801V33.624C66.6961 32.94 65.8561 32.316 64.6321 32.316C62.8681 32.316 61.5121 33.636 61.5121 35.688ZM67.0801 35.7C67.0801 37.248 66.0481 38.148 64.8481 38.148C63.6481 38.148 62.6281 37.236 62.6281 35.688C62.6281 34.14 63.6481 33.264 64.8481 33.264C66.0481 33.264 67.0801 34.176 67.0801 35.7ZM74.8415 39H75.9215V35.124C75.9215 33.24 74.7575 32.304 73.2335 32.304C72.3455 32.304 71.5535 32.676 71.1215 33.36V32.424H70.0295V39H71.1215V35.364C71.1215 33.948 71.8895 33.252 73.0055 33.252C74.1095 33.252 74.8415 33.936 74.8415 35.28V39ZM77.9333 33.36L79.0853 30.636H77.8733L77.1653 33.36H77.9333ZM80.5703 37.2C80.5703 38.52 81.2303 39 82.3943 39H83.3783V38.076H82.5742C81.9023 38.076 81.6623 37.848 81.6623 37.2V33.324H83.3783V32.424H81.6623V30.768H80.5703V32.424H79.7183V33.324H80.5703V37.2ZM93.7326 32.424H92.6406V36.036C92.6406 37.452 91.8846 38.148 90.7566 38.148C89.6526 38.148 88.9206 37.464 88.9206 36.132V32.424H87.8406V36.276C87.8406 38.16 89.0286 39.096 90.5406 39.096C91.4166 39.096 92.2206 38.712 92.6406 38.028V39H93.7326V32.424ZM100.304 37.212C100.256 34.86 96.4403 35.712 96.4403 34.152C96.4403 33.624 96.9203 33.24 97.7243 33.24C98.6003 33.24 99.1043 33.72 99.1523 34.38H100.244C100.172 33.096 99.2123 32.316 97.7603 32.316C96.2963 32.316 95.3483 33.144 95.3483 34.152C95.3483 36.6 99.2363 35.748 99.2363 37.212C99.2363 37.752 98.7563 38.184 97.8923 38.184C96.9683 38.184 96.4043 37.704 96.3443 37.068H95.2163C95.2883 38.268 96.3683 39.108 97.9043 39.108C99.3563 39.108 100.304 38.292 100.304 37.212ZM104.642 33.24C105.77 33.24 106.73 33.948 106.718 35.232H102.566C102.686 33.948 103.574 33.24 104.642 33.24ZM107.714 36.972H106.538C106.298 37.68 105.674 38.184 104.69 38.184C103.574 38.184 102.638 37.452 102.554 36.12H107.81C107.834 35.892 107.846 35.7 107.846 35.46C107.846 33.66 106.598 32.316 104.69 32.316C102.77 32.316 101.438 33.624 101.438 35.7C101.438 37.788 102.818 39.108 104.69 39.108C106.322 39.108 107.378 38.172 107.714 36.972ZM110.379 35.424C110.379 33.9 111.171 33.432 112.215 33.432H112.503V32.304C111.459 32.304 110.751 32.76 110.379 33.492V32.424H109.287V39H110.379V35.424ZM117.203 37.2C117.203 38.52 117.863 39 119.027 39H120.011V38.076H119.207C118.535 38.076 118.295 37.848 118.295 37.2V33.324H120.011V32.424H118.295V30.768H117.203V32.424H116.351V33.324H117.203V37.2ZM121.334 39H122.426V35.364C122.426 33.948 123.194 33.252 124.31 33.252C125.414 33.252 126.146 33.936 126.146 35.28V39H127.226V35.124C127.226 33.24 126.062 32.304 124.598 32.304C123.674 32.304 122.858 32.676 122.426 33.372V30.12H121.334V39ZM129.01 39H130.102V32.424H129.01V39ZM129.574 31.356C129.97 31.356 130.294 31.032 130.294 30.612C130.294 30.192 129.97 29.868 129.574 29.868C129.154 29.868 128.83 30.192 128.83 30.612C128.83 31.032 129.154 31.356 129.574 31.356ZM136.691 37.212C136.643 34.86 132.827 35.712 132.827 34.152C132.827 33.624 133.307 33.24 134.111 33.24C134.987 33.24 135.491 33.72 135.539 34.38H136.631C136.559 33.096 135.599 32.316 134.147 32.316C132.683 32.316 131.735 33.144 131.735 34.152C131.735 36.6 135.623 35.748 135.623 37.212C135.623 37.752 135.143 38.184 134.279 38.184C133.355 38.184 132.791 37.704 132.731 37.068H131.603C131.675 38.268 132.755 39.108 134.291 39.108C135.743 39.108 136.691 38.292 136.691 37.212ZM142.716 39H143.844L145.428 33.78L147.012 39H148.14L150.192 32.424H149.112L147.624 37.956L146.028 32.424H144.912L143.28 37.944L141.768 32.424H140.652L142.716 39ZM151.276 39H152.368V32.424H151.276V39ZM151.84 31.356C152.236 31.356 152.56 31.032 152.56 30.612C152.56 30.192 152.236 29.868 151.84 29.868C151.42 29.868 151.096 30.192 151.096 30.612C151.096 31.032 151.42 31.356 151.84 31.356ZM154.469 37.2C154.469 38.52 155.129 39 156.293 39H157.277V38.076H156.473C155.801 38.076 155.561 37.848 155.561 37.2V33.324H157.277V32.424H155.561V30.768H154.469V32.424H153.617V33.324H154.469V37.2ZM158.6 39H159.692V35.364C159.692 33.948 160.46 33.252 161.576 33.252C162.68 33.252 163.412 33.936 163.412 35.28V39H164.492V35.124C164.492 33.24 163.328 32.304 161.864 32.304C160.94 32.304 160.124 32.676 159.692 33.372V30.12H158.6V39ZM172.516 35.7C172.516 33.624 171.064 32.316 169.192 32.316C167.332 32.316 165.868 33.624 165.868 35.7C165.868 37.788 167.284 39.108 169.144 39.108C171.016 39.108 172.516 37.788 172.516 35.7ZM166.984 35.7C166.984 34.044 168.028 33.264 169.18 33.264C170.308 33.264 171.4 34.044 171.4 35.7C171.4 37.368 170.284 38.148 169.144 38.148C168.004 38.148 166.984 37.368 166.984 35.7ZM179.783 32.424H178.691V36.036C178.691 37.452 177.935 38.148 176.807 38.148C175.703 38.148 174.971 37.464 174.971 36.132V32.424H173.891V36.276C173.891 38.16 175.079 39.096 176.591 39.096C177.467 39.096 178.271 38.712 178.691 38.028V39H179.783V32.424ZM181.867 37.2C181.867 38.52 182.527 39 183.691 39H184.675V38.076H183.871C183.199 38.076 182.959 37.848 182.959 37.2V33.324H184.675V32.424H182.959V30.768H181.867V32.424H181.015V33.324H181.867V37.2ZM56.7929 53.7C56.7929 51.624 55.3409 50.316 53.4689 50.316C51.6089 50.316 50.1449 51.624 50.1449 53.7C50.1449 55.788 51.5609 57.108 53.4209 57.108C55.2929 57.108 56.7929 55.788 56.7929 53.7ZM51.2609 53.7C51.2609 52.044 52.3049 51.264 53.4569 51.264C54.5849 51.264 55.6769 52.044 55.6769 53.7C55.6769 55.368 54.5609 56.148 53.4209 56.148C52.2809 56.148 51.2609 55.368 51.2609 53.7ZM59.3207 51.636V50.424H58.2287V60.12H59.3207V55.788C59.7287 56.46 60.5807 57.108 61.7807 57.108C63.5447 57.108 64.9007 55.728 64.9007 53.688C64.9007 51.636 63.5447 50.316 61.7807 50.316C60.5807 50.316 59.7167 50.94 59.3207 51.636ZM63.7847 53.688C63.7847 55.236 62.7647 56.148 61.5527 56.148C60.3647 56.148 59.3207 55.248 59.3207 53.7C59.3207 52.176 60.3647 51.264 61.5527 51.264C62.7647 51.264 63.7847 52.14 63.7847 53.688ZM69.1341 51.24C70.2621 51.24 71.2221 51.948 71.2101 53.232H67.0581C67.1781 51.948 68.0661 51.24 69.1341 51.24ZM72.2061 54.972H71.0301C70.7901 55.68 70.1661 56.184 69.1821 56.184C68.0661 56.184 67.1301 55.452 67.0461 54.12H72.3021C72.3261 53.892 72.3381 53.7 72.3381 53.46C72.3381 51.66 71.0901 50.316 69.1821 50.316C67.2621 50.316 65.9301 51.624 65.9301 53.7C65.9301 55.788 67.3101 57.108 69.1821 57.108C70.8141 57.108 71.8701 56.172 72.2061 54.972ZM78.5915 57H79.6715V53.124C79.6715 51.24 78.5075 50.304 76.9835 50.304C76.0955 50.304 75.3035 50.676 74.8715 51.36V50.424H73.7795V57H74.8715V53.364C74.8715 51.948 75.6395 51.252 76.7555 51.252C77.8595 51.252 78.5915 51.936 78.5915 53.28V57ZM81.4553 57H82.5473V50.424H81.4553V57ZM82.0193 49.356C82.4153 49.356 82.7393 49.032 82.7393 48.612C82.7393 48.192 82.4153 47.868 82.0193 47.868C81.5993 47.868 81.2753 48.192 81.2753 48.612C81.2753 49.032 81.5993 49.356 82.0193 49.356ZM89.2204 57H90.3004V53.124C90.3004 51.24 89.1364 50.304 87.6124 50.304C86.7244 50.304 85.9324 50.676 85.5004 51.36V50.424H84.4084V57H85.5004V53.364C85.5004 51.948 86.2684 51.252 87.3844 51.252C88.4884 51.252 89.2204 51.936 89.2204 53.28V57ZM91.6762 53.688C91.6762 55.728 93.0322 57.108 94.7962 57.108C95.9962 57.108 96.8482 56.472 97.2442 55.764V57.144C97.2442 58.548 96.3682 59.292 95.2042 59.292C94.1242 59.292 93.3442 58.752 93.1042 57.96H92.0242C92.2402 59.364 93.4762 60.24 95.2042 60.24C97.1362 60.24 98.3482 58.956 98.3482 57.144V50.424H97.2442V51.624C96.8602 50.916 95.9962 50.316 94.7962 50.316C93.0322 50.316 91.6762 51.636 91.6762 53.688ZM97.2442 53.7C97.2442 55.248 96.2122 56.148 95.0122 56.148C93.8122 56.148 92.7922 55.236 92.7922 53.688C92.7922 52.14 93.8122 51.264 95.0122 51.264C96.2122 51.264 97.2442 52.176 97.2442 53.7ZM102.985 53.688C102.985 55.728 104.341 57.108 106.093 57.108C107.305 57.108 108.157 56.484 108.553 55.776V57H109.657V50.424H108.553V51.624C108.169 50.94 107.329 50.316 106.105 50.316C104.341 50.316 102.985 51.636 102.985 53.688ZM108.553 53.7C108.553 55.248 107.521 56.148 106.321 56.148C105.121 56.148 104.101 55.236 104.101 53.688C104.101 52.14 105.121 51.264 106.321 51.264C107.521 51.264 108.553 52.176 108.553 53.7ZM116.314 57H117.394V53.124C117.394 51.24 116.23 50.304 114.706 50.304C113.818 50.304 113.026 50.676 112.594 51.36V50.424H111.502V57H112.594V53.364C112.594 51.948 113.362 51.252 114.478 51.252C115.582 51.252 116.314 51.936 116.314 53.28V57ZM125.418 53.7C125.418 51.624 123.966 50.316 122.094 50.316C120.234 50.316 118.77 51.624 118.77 53.7C118.77 55.788 120.186 57.108 122.046 57.108C123.918 57.108 125.418 55.788 125.418 53.7ZM119.886 53.7C119.886 52.044 120.93 51.264 122.082 51.264C123.21 51.264 124.302 52.044 124.302 53.7C124.302 55.368 123.186 56.148 122.046 56.148C120.906 56.148 119.886 55.368 119.886 53.7ZM127.094 55.2C127.094 56.52 127.754 57 128.918 57H129.902V56.076H129.098C128.426 56.076 128.186 55.848 128.186 55.2V51.324H129.902V50.424H128.186V48.768H127.094V50.424H126.242V51.324H127.094V55.2ZM131.225 57H132.317V53.364C132.317 51.948 133.085 51.252 134.201 51.252C135.305 51.252 136.037 51.936 136.037 53.28V57H137.117V53.124C137.117 51.24 135.953 50.304 134.489 50.304C133.565 50.304 132.749 50.676 132.317 51.372V48.12H131.225V57ZM141.697 51.24C142.825 51.24 143.785 51.948 143.773 53.232H139.621C139.741 51.948 140.629 51.24 141.697 51.24ZM144.769 54.972H143.593C143.353 55.68 142.729 56.184 141.745 56.184C140.629 56.184 139.693 55.452 139.609 54.12H144.865C144.889 53.892 144.901 53.7 144.901 53.46C144.901 51.66 143.653 50.316 141.745 50.316C139.825 50.316 138.493 51.624 138.493 53.7C138.493 55.788 139.873 57.108 141.745 57.108C143.377 57.108 144.433 56.172 144.769 54.972ZM147.434 53.424C147.434 51.9 148.226 51.432 149.27 51.432H149.558V50.304C148.514 50.304 147.806 50.76 147.434 51.492V50.424H146.342V57H147.434V53.424ZM154.258 55.2C154.258 56.52 154.918 57 156.082 57H157.066V56.076H156.262C155.59 56.076 155.35 55.848 155.35 55.2V51.324H157.066V50.424H155.35V48.768H154.258V50.424H153.406V51.324H154.258V55.2ZM157.981 53.688C157.981 55.728 159.337 57.108 161.089 57.108C162.301 57.108 163.153 56.484 163.549 55.776V57H164.653V50.424H163.549V51.624C163.165 50.94 162.325 50.316 161.101 50.316C159.337 50.316 157.981 51.636 157.981 53.688ZM163.549 53.7C163.549 55.248 162.517 56.148 161.317 56.148C160.117 56.148 159.097 55.236 159.097 53.688C159.097 52.14 160.117 51.264 161.317 51.264C162.517 51.264 163.549 52.176 163.549 53.7ZM167.59 51.648V48.12H166.498V57H167.59V55.788C167.998 56.508 168.85 57.108 170.05 57.108C171.814 57.108 173.17 55.728 173.17 53.688C173.17 51.636 171.826 50.316 170.05 50.316C168.886 50.316 168.01 50.916 167.59 51.648ZM172.054 53.688C172.054 55.236 171.034 56.148 169.822 56.148C168.634 56.148 167.59 55.248 167.59 53.7C167.59 52.176 168.634 51.264 169.822 51.264C171.034 51.264 172.054 52.14 172.054 53.688ZM176.9 51.36L178.052 48.636H176.84L176.132 51.36H176.9ZM174.944 51.36L176.096 48.636H174.884L174.176 51.36H174.944Z" fill="#383838"/>
</svg>
