<svg width="229" height="109" viewBox="0 0 229 109" fill="none" xmlns="http://www.w3.org/2000/svg">
<path d="M205.292 0H23.2767C17.1055 0.00416664 11.189 1.47599 6.82525 4.09258C2.46152 6.70917 0.00693341 10.2568 0 13.9572V73.6653C0.0069347 77.3657 2.46151 80.9134 6.82525 83.5299C11.189 86.1465 17.1055 87.6183 23.2767 87.6225H205.292C211.463 87.6183 217.379 86.1465 221.743 83.5299C226.107 80.9134 228.561 77.3657 228.568 73.6653V13.9572C228.561 10.2568 226.107 6.70917 221.743 4.09258C217.379 1.47599 211.463 0.00416664 205.292 0V0Z" fill="#E6E6E6"/>
<path d="M205.291 4.01807H23.2762C18.8815 4.02102 14.6682 5.06914 11.5606 6.93247C8.45312 8.7958 6.70513 11.3222 6.7002 13.9573V73.6654C6.70514 76.3005 8.45312 78.8269 11.5606 80.6902C14.6682 82.5535 18.8815 83.6017 23.2762 83.6046H205.291C209.686 83.6016 213.899 82.5535 217.007 80.6902C220.114 78.8268 221.862 76.3005 221.867 73.6654V13.9573C221.862 11.3222 220.114 8.79584 217.007 6.93251C213.899 5.06918 209.686 4.02105 205.291 4.01807Z" fill="white"/>
<path d="M191.445 108.272L152.571 84.962L198.463 85.8879V106.529C198.472 107.017 198.234 107.496 197.781 107.902C197.329 108.309 196.682 108.624 195.926 108.806C195.419 108.933 194.875 108.999 194.326 109C193.789 108.999 193.258 108.934 192.764 108.809C192.269 108.684 191.821 108.501 191.445 108.272V108.272Z" fill="#E6E6E6"/>
<path d="M43.0424 21.624L41.8904 24.348H43.1024L43.8104 21.624H43.0424ZM44.9984 21.624L43.8464 24.348H45.0584L45.7664 21.624H44.9984ZM50.3185 30H51.4105V21.636H50.3185V30ZM53.4997 24.36L54.6517 21.636H53.4397L52.7317 24.36H53.4997ZM55.4887 26.688C55.4887 28.728 56.8447 30.108 58.6087 30.108C59.8087 30.108 60.6607 29.496 61.0567 28.764V30H62.1607V21.12H61.0567V24.6C60.6007 23.844 59.6527 23.316 58.6207 23.316C56.8447 23.316 55.4887 24.636 55.4887 26.688ZM61.0567 26.7C61.0567 28.248 60.0247 29.148 58.8247 29.148C57.6247 29.148 56.6047 28.236 56.6047 26.688C56.6047 25.14 57.6247 24.264 58.8247 24.264C60.0247 24.264 61.0567 25.176 61.0567 26.7ZM68.2973 26.424C68.2973 24.9 69.0893 24.432 70.1333 24.432H70.4213V23.304C69.3773 23.304 68.6693 23.76 68.2973 24.492V23.424H67.2053V30H68.2973V26.424ZM71.2738 26.688C71.2738 28.728 72.6298 30.108 74.3818 30.108C75.5938 30.108 76.4458 29.484 76.8418 28.776V30H77.9458V23.424H76.8418V24.624C76.4578 23.94 75.6178 23.316 74.3938 23.316C72.6298 23.316 71.2738 24.636 71.2738 26.688ZM76.8418 26.7C76.8418 28.248 75.8098 29.148 74.6098 29.148C73.4098 29.148 72.3898 28.236 72.3898 26.688C72.3898 25.14 73.4098 24.264 74.6098 24.264C75.8098 24.264 76.8418 25.176 76.8418 26.7ZM80.0312 28.2C80.0312 29.52 80.6912 30 81.8552 30H82.8392V29.076H82.0352C81.3632 29.076 81.1232 28.848 81.1232 28.2V24.324H82.8392V23.424H81.1232V21.768H80.0312V23.424H79.1792V24.324H80.0312V28.2ZM84.1623 30H85.2543V26.364C85.2543 24.948 86.0223 24.252 87.1383 24.252C88.2423 24.252 88.9743 24.936 88.9743 26.28V30H90.0543V26.124C90.0543 24.24 88.8903 23.304 87.4263 23.304C86.5023 23.304 85.6863 23.676 85.2543 24.372V21.12H84.1623V30ZM94.6341 24.24C95.7621 24.24 96.7221 24.948 96.7101 26.232H92.5581C92.6781 24.948 93.5661 24.24 94.6341 24.24ZM97.7061 27.972H96.5301C96.2901 28.68 95.6661 29.184 94.6821 29.184C93.5661 29.184 92.6301 28.452 92.5461 27.12H97.8021C97.8261 26.892 97.8381 26.7 97.8381 26.46C97.8381 24.66 96.5901 23.316 94.6821 23.316C92.7621 23.316 91.4301 24.624 91.4301 26.7C91.4301 28.788 92.8101 30.108 94.6821 30.108C96.3141 30.108 97.3701 29.172 97.7061 27.972ZM100.371 26.424C100.371 24.9 101.163 24.432 102.207 24.432H102.495V23.304C101.451 23.304 100.743 23.76 100.371 24.492V23.424H99.2795V30H100.371V26.424ZM111.683 28.212C111.635 25.86 107.819 26.712 107.819 25.152C107.819 24.624 108.299 24.24 109.103 24.24C109.979 24.24 110.483 24.72 110.531 25.38H111.623C111.551 24.096 110.591 23.316 109.139 23.316C107.675 23.316 106.727 24.144 106.727 25.152C106.727 27.6 110.615 26.748 110.615 28.212C110.615 28.752 110.135 29.184 109.271 29.184C108.347 29.184 107.783 28.704 107.723 28.068H106.595C106.667 29.268 107.747 30.108 109.283 30.108C110.735 30.108 111.683 29.292 111.683 28.212ZM113.225 30H114.317V26.364C114.317 24.948 115.085 24.252 116.201 24.252C117.305 24.252 118.037 24.936 118.037 26.28V30H119.117V26.124C119.117 24.24 117.953 23.304 116.489 23.304C115.565 23.304 114.749 23.676 114.317 24.372V21.12H113.225V30ZM127.141 26.7C127.141 24.624 125.689 23.316 123.817 23.316C121.957 23.316 120.493 24.624 120.493 26.7C120.493 28.788 121.909 30.108 123.769 30.108C125.641 30.108 127.141 28.788 127.141 26.7ZM121.609 26.7C121.609 25.044 122.653 24.264 123.805 24.264C124.933 24.264 126.025 25.044 126.025 26.7C126.025 28.368 124.909 29.148 123.769 29.148C122.629 29.148 121.609 28.368 121.609 26.7ZM129.668 24.636V23.424H128.576V33.12H129.668V28.788C130.076 29.46 130.928 30.108 132.128 30.108C133.892 30.108 135.248 28.728 135.248 26.688C135.248 24.636 133.892 23.316 132.128 23.316C130.928 23.316 130.064 23.94 129.668 24.636ZM134.132 26.688C134.132 28.236 133.112 29.148 131.9 29.148C130.712 29.148 129.668 28.248 129.668 26.7C129.668 25.176 130.712 24.264 131.9 24.264C133.112 24.264 134.132 25.14 134.132 26.688ZM139.885 30H140.977V23.424H139.885V30ZM140.449 22.356C140.845 22.356 141.169 22.032 141.169 21.612C141.169 21.192 140.845 20.868 140.449 20.868C140.029 20.868 139.705 21.192 139.705 21.612C139.705 22.032 140.029 22.356 140.449 22.356ZM147.65 30H148.73V26.124C148.73 24.24 147.566 23.304 146.042 23.304C145.154 23.304 144.362 23.676 143.93 24.36V23.424H142.838V30H143.93V26.364C143.93 24.948 144.698 24.252 145.814 24.252C146.918 24.252 147.65 24.936 147.65 26.28V30ZM150.286 26.064H155.074V25.14H150.286V26.064ZM161.851 28.212C161.803 25.86 157.987 26.712 157.987 25.152C157.987 24.624 158.467 24.24 159.271 24.24C160.147 24.24 160.651 24.72 160.699 25.38H161.791C161.719 24.096 160.759 23.316 159.307 23.316C157.843 23.316 156.895 24.144 156.895 25.152C156.895 27.6 160.783 26.748 160.783 28.212C160.783 28.752 160.303 29.184 159.439 29.184C158.515 29.184 157.951 28.704 157.891 28.068H156.763C156.835 29.268 157.915 30.108 159.451 30.108C160.903 30.108 161.851 29.292 161.851 28.212ZM163.633 28.2C163.633 29.52 164.293 30 165.457 30H166.441V29.076H165.637C164.965 29.076 164.725 28.848 164.725 28.2V24.324H166.441V23.424H164.725V21.768H163.633V23.424H162.781V24.324H163.633V28.2ZM174.004 26.7C174.004 24.624 172.552 23.316 170.68 23.316C168.82 23.316 167.356 24.624 167.356 26.7C167.356 28.788 168.772 30.108 170.632 30.108C172.504 30.108 174.004 28.788 174.004 26.7ZM168.472 26.7C168.472 25.044 169.516 24.264 170.668 24.264C171.796 24.264 172.888 25.044 172.888 26.7C172.888 28.368 171.772 29.148 170.632 29.148C169.492 29.148 168.472 28.368 168.472 26.7ZM176.532 26.424C176.532 24.9 177.324 24.432 178.368 24.432H178.656V23.304C177.612 23.304 176.904 23.76 176.532 24.492V23.424H175.44V30H176.532V26.424ZM182.712 24.24C183.84 24.24 184.8 24.948 184.788 26.232H180.636C180.756 24.948 181.644 24.24 182.712 24.24ZM185.784 27.972H184.608C184.368 28.68 183.744 29.184 182.76 29.184C181.644 29.184 180.708 28.452 180.624 27.12H185.88C185.904 26.892 185.916 26.7 185.916 26.46C185.916 24.66 184.668 23.316 182.76 23.316C180.84 23.316 179.508 24.624 179.508 26.7C179.508 28.788 180.888 30.108 182.76 30.108C184.392 30.108 185.448 29.172 185.784 27.972ZM49.136 42.24C50.264 42.24 51.224 42.948 51.212 44.232H47.06C47.18 42.948 48.068 42.24 49.136 42.24ZM52.208 45.972H51.032C50.792 46.68 50.168 47.184 49.184 47.184C48.068 47.184 47.132 46.452 47.048 45.12H52.304C52.328 44.892 52.34 44.7 52.34 44.46C52.34 42.66 51.092 41.316 49.184 41.316C47.264 41.316 45.932 42.624 45.932 44.7C45.932 46.788 47.312 48.108 49.184 48.108C50.816 48.108 51.872 47.172 52.208 45.972ZM53.0014 41.424L55.5814 48H56.8534L59.4334 41.424H58.2694L56.2294 46.992L54.1774 41.424H53.0014ZM63.304 42.24C64.432 42.24 65.392 42.948 65.38 44.232H61.228C61.348 42.948 62.236 42.24 63.304 42.24ZM66.376 45.972H65.2C64.96 46.68 64.336 47.184 63.352 47.184C62.236 47.184 61.3 46.452 61.216 45.12H66.472C66.496 44.892 66.508 44.7 66.508 44.46C66.508 42.66 65.26 41.316 63.352 41.316C61.432 41.316 60.1 42.624 60.1 44.7C60.1 46.788 61.48 48.108 63.352 48.108C64.984 48.108 66.04 47.172 66.376 45.972ZM72.7614 48H73.8414V44.124C73.8414 42.24 72.6774 41.304 71.1534 41.304C70.2654 41.304 69.4734 41.676 69.0414 42.36V41.424H67.9494V48H69.0414V44.364C69.0414 42.948 69.8094 42.252 70.9254 42.252C72.0294 42.252 72.7614 42.936 72.7614 44.28V48ZM78.8244 48H79.9164V41.424H78.8244V48ZM79.3884 40.356C79.7844 40.356 80.1084 40.032 80.1084 39.612C80.1084 39.192 79.7844 38.868 79.3884 38.868C78.9684 38.868 78.6444 39.192 78.6444 39.612C78.6444 40.032 78.9684 40.356 79.3884 40.356ZM81.9815 48H83.0735V42.324H84.4535V41.424H83.0735V40.956C83.0735 40.104 83.3975 39.744 84.3815 39.744V38.832C82.7015 38.832 81.9815 39.492 81.9815 40.956V41.424H81.1295V42.324H81.9815V48ZM88.926 48H90.018V41.424H88.926V48ZM89.49 40.356C89.886 40.356 90.21 40.032 90.21 39.612C90.21 39.192 89.886 38.868 89.49 38.868C89.07 38.868 88.746 39.192 88.746 39.612C88.746 40.032 89.07 40.356 89.49 40.356ZM92.1191 46.2C92.1191 47.52 92.7791 48 93.9431 48H94.9271V47.076H94.1231C93.4511 47.076 93.2111 46.848 93.2111 46.2V42.324H94.9271V41.424H93.2111V39.768H92.1191V41.424H91.2671V42.324H92.1191V46.2ZM108.941 48H110.021V44.124C110.021 42.24 108.857 41.304 107.357 41.304C106.349 41.304 105.413 41.82 105.029 42.768C104.597 41.784 103.697 41.304 102.617 41.304C101.753 41.304 100.973 41.676 100.541 42.372V41.424H99.4494V48H100.541V44.376C100.541 42.96 101.297 42.252 102.401 42.252C103.481 42.252 104.201 42.936 104.201 44.28V48H105.281V44.376C105.281 42.96 106.037 42.252 107.141 42.252C108.221 42.252 108.941 42.936 108.941 44.28V48ZM111.813 48H112.905V41.424H111.813V48ZM112.377 40.356C112.773 40.356 113.097 40.032 113.097 39.612C113.097 39.192 112.773 38.868 112.377 38.868C111.957 38.868 111.633 39.192 111.633 39.612C111.633 40.032 111.957 40.356 112.377 40.356ZM114.358 44.688C114.358 46.728 115.714 48.108 117.478 48.108C118.678 48.108 119.53 47.472 119.926 46.764V48.144C119.926 49.548 119.05 50.292 117.886 50.292C116.806 50.292 116.026 49.752 115.786 48.96H114.706C114.922 50.364 116.158 51.24 117.886 51.24C119.818 51.24 121.03 49.956 121.03 48.144V41.424H119.926V42.624C119.542 41.916 118.678 41.316 117.478 41.316C115.714 41.316 114.358 42.636 114.358 44.688ZM119.926 44.7C119.926 46.248 118.894 47.148 117.694 47.148C116.494 47.148 115.474 46.236 115.474 44.688C115.474 43.14 116.494 42.264 117.694 42.264C118.894 42.264 119.926 43.176 119.926 44.7ZM122.875 48H123.967V44.364C123.967 42.948 124.735 42.252 125.851 42.252C126.955 42.252 127.687 42.936 127.687 44.28V48H128.767V44.124C128.767 42.24 127.603 41.304 126.139 41.304C125.215 41.304 124.399 41.676 123.967 42.372V39.12H122.875V48ZM130.791 46.2C130.791 47.52 131.451 48 132.615 48H133.599V47.076H132.795C132.123 47.076 131.883 46.848 131.883 46.2V42.324H133.599V41.424H131.883V39.768H130.791V41.424H129.939V42.324H130.791V46.2ZM139.213 42.648V39.12H138.121V48H139.213V46.788C139.621 47.508 140.473 48.108 141.673 48.108C143.437 48.108 144.793 46.728 144.793 44.688C144.793 42.636 143.449 41.316 141.673 41.316C140.509 41.316 139.633 41.916 139.213 42.648ZM143.677 44.688C143.677 46.236 142.657 47.148 141.445 47.148C140.257 47.148 139.213 46.248 139.213 44.7C139.213 43.176 140.257 42.264 141.445 42.264C142.657 42.264 143.677 43.14 143.677 44.688ZM149.027 42.24C150.155 42.24 151.115 42.948 151.103 44.232H146.951C147.071 42.948 147.959 42.24 149.027 42.24ZM152.099 45.972H150.923C150.683 46.68 150.059 47.184 149.075 47.184C147.959 47.184 147.023 46.452 146.939 45.12H152.195C152.219 44.892 152.231 44.7 152.231 44.46C152.231 42.66 150.983 41.316 149.075 41.316C147.155 41.316 145.823 42.624 145.823 44.7C145.823 46.788 147.203 48.108 149.075 48.108C150.707 48.108 151.763 47.172 152.099 45.972ZM157.963 44.424C157.963 42.9 158.755 42.432 159.799 42.432H160.087V41.304C159.043 41.304 158.335 41.76 157.963 42.492V41.424H156.871V48H157.963V44.424ZM161.348 48H162.44V41.424H161.348V48ZM161.912 40.356C162.308 40.356 162.632 40.032 162.632 39.612C162.632 39.192 162.308 38.868 161.912 38.868C161.492 38.868 161.168 39.192 161.168 39.612C161.168 40.032 161.492 40.356 161.912 40.356ZM169.029 46.212C168.981 43.86 165.165 44.712 165.165 43.152C165.165 42.624 165.645 42.24 166.449 42.24C167.325 42.24 167.829 42.72 167.877 43.38H168.969C168.897 42.096 167.937 41.316 166.485 41.316C165.021 41.316 164.073 42.144 164.073 43.152C164.073 45.6 167.961 44.748 167.961 46.212C167.961 46.752 167.481 47.184 166.617 47.184C165.693 47.184 165.129 46.704 165.069 46.068H163.941C164.013 47.268 165.093 48.108 166.629 48.108C168.081 48.108 169.029 47.292 169.029 46.212ZM170.57 48H171.662V45.096L174.242 48H175.73L172.622 44.7L175.718 41.424H174.194L171.662 44.34V39.12H170.57V48ZM179.242 46.752L177.178 41.424H175.966L178.618 47.928L177.322 51.096H178.45L182.41 41.424H181.282L179.242 46.752ZM67.0433 62.688C67.0433 64.728 68.3993 66.108 70.1513 66.108C71.3633 66.108 72.2153 65.484 72.6113 64.776V66H73.7153V59.424H72.6113V60.624C72.2273 59.94 71.3873 59.316 70.1633 59.316C68.3993 59.316 67.0433 60.636 67.0433 62.688ZM72.6113 62.7C72.6113 64.248 71.5793 65.148 70.3793 65.148C69.1793 65.148 68.1593 64.236 68.1593 62.688C68.1593 61.14 69.1793 60.264 70.3793 60.264C71.5793 60.264 72.6113 61.176 72.6113 62.7ZM75.8007 64.2C75.8007 65.52 76.4607 66 77.6247 66H78.6087V65.076H77.8047C77.1327 65.076 76.8927 64.848 76.8927 64.2V60.324H78.6087V59.424H76.8927V57.768H75.8007V59.424H74.9487V60.324H75.8007V64.2ZM83.371 64.2C83.371 65.52 84.031 66 85.195 66H86.179V65.076H85.375C84.703 65.076 84.463 64.848 84.463 64.2V60.324H86.179V59.424H84.463V57.768H83.371V59.424H82.519V60.324H83.371V64.2ZM87.5021 66H88.5941V62.364C88.5941 60.948 89.3621 60.252 90.4781 60.252C91.5821 60.252 92.3141 60.936 92.3141 62.28V66H93.3941V62.124C93.3941 60.24 92.2301 59.304 90.7661 59.304C89.8421 59.304 89.0261 59.676 88.5941 60.372V57.12H87.5021V66ZM97.9739 60.24C99.1019 60.24 100.062 60.948 100.05 62.232H95.8979C96.0179 60.948 96.9059 60.24 97.9739 60.24ZM101.046 63.972H99.8699C99.6299 64.68 99.0059 65.184 98.0219 65.184C96.9059 65.184 95.9699 64.452 95.8859 63.12H101.142C101.166 62.892 101.178 62.7 101.178 62.46C101.178 60.66 99.9299 59.316 98.0219 59.316C96.1019 59.316 94.7699 60.624 94.7699 62.7C94.7699 64.788 96.1499 66.108 98.0219 66.108C99.6539 66.108 100.71 65.172 101.046 63.972ZM115.311 66H116.391V62.124C116.391 60.24 115.227 59.304 113.727 59.304C112.719 59.304 111.783 59.82 111.399 60.768C110.967 59.784 110.067 59.304 108.987 59.304C108.123 59.304 107.343 59.676 106.911 60.372V59.424H105.819V66H106.911V62.376C106.911 60.96 107.667 60.252 108.771 60.252C109.851 60.252 110.571 60.936 110.571 62.28V66H111.651V62.376C111.651 60.96 112.407 60.252 113.511 60.252C114.591 60.252 115.311 60.936 115.311 62.28V66ZM124.422 62.7C124.422 60.624 122.97 59.316 121.098 59.316C119.238 59.316 117.774 60.624 117.774 62.7C117.774 64.788 119.19 66.108 121.05 66.108C122.922 66.108 124.422 64.788 124.422 62.7ZM118.89 62.7C118.89 61.044 119.934 60.264 121.086 60.264C122.214 60.264 123.306 61.044 123.306 62.7C123.306 64.368 122.19 65.148 121.05 65.148C119.91 65.148 118.89 64.368 118.89 62.7ZM135.35 66H136.43V62.124C136.43 60.24 135.266 59.304 133.766 59.304C132.758 59.304 131.822 59.82 131.438 60.768C131.006 59.784 130.106 59.304 129.026 59.304C128.162 59.304 127.382 59.676 126.95 60.372V59.424H125.858V66H126.95V62.376C126.95 60.96 127.706 60.252 128.81 60.252C129.89 60.252 130.61 60.936 130.61 62.28V66H131.69V62.376C131.69 60.96 132.446 60.252 133.55 60.252C134.63 60.252 135.35 60.936 135.35 62.28V66ZM141.017 60.24C142.145 60.24 143.105 60.948 143.093 62.232H138.941C139.061 60.948 139.949 60.24 141.017 60.24ZM144.089 63.972H142.913C142.673 64.68 142.049 65.184 141.065 65.184C139.949 65.184 139.013 64.452 138.929 63.12H144.185C144.209 62.892 144.221 62.7 144.221 62.46C144.221 60.66 142.973 59.316 141.065 59.316C139.145 59.316 137.813 60.624 137.813 62.7C137.813 64.788 139.193 66.108 141.065 66.108C142.697 66.108 143.753 65.172 144.089 63.972ZM150.474 66H151.554V62.124C151.554 60.24 150.39 59.304 148.866 59.304C147.978 59.304 147.186 59.676 146.754 60.36V59.424H145.662V66H146.754V62.364C146.754 60.948 147.522 60.252 148.638 60.252C149.742 60.252 150.474 60.936 150.474 62.28V66ZM153.578 64.2C153.578 65.52 154.238 66 155.402 66H156.386V65.076H155.582C154.91 65.076 154.67 64.848 154.67 64.2V60.324H156.386V59.424H154.67V57.768H153.578V59.424H152.726V60.324H153.578V64.2ZM160.001 60.36L161.153 57.636H159.941L159.233 60.36H160.001ZM158.045 60.36L159.197 57.636H157.985L157.277 60.36H158.045Z" fill="#383838"/>
</svg>
